<?xml version="1.0" standalone="no"?>
<!DOCTYPE svg PUBLIC "-//W3C//DTD SVG 20010904//EN"
 "http://www.w3.org/TR/2001/REC-SVG-20010904/DTD/svg10.dtd">
<svg version="1.0" xmlns="http://www.w3.org/2000/svg"
 width="352.000000pt" height="146.000000pt" viewBox="0 0 352.000000 146.000000"
 preserveAspectRatio="xMidYMid meet">

<g transform="translate(0.000000,146.000000) scale(0.100000,-0.100000)"
fill="#000000" stroke="none">
<path d="M180 750 l0 -630 715 0 715 0 0 35 0 35 -685 0 -685 0 0 560 0 560
1525 0 1525 0 0 -480 0 -480 30 0 30 0 0 515 0 515 -1585 0 -1585 0 0 -630z"/>
<path d="M1856 1051 c-9 -16 -27 -43 -42 -60 -22 -27 -24 -32 -9 -37 10 -4 26
3 44 20 34 32 45 33 59 1 6 -14 19 -25 28 -25 12 0 15 6 10 25 -6 24 -5 25 41
25 42 0 45 -1 28 -13 -12 -10 -14 -16 -7 -21 7 -4 12 -16 12 -27 0 -18 -8 -19
-105 -19 l-105 0 0 -50 c0 -43 3 -50 20 -50 16 0 20 7 20 35 l0 35 195 0 195
0 0 -35 c0 -28 4 -35 20 -35 17 0 20 7 20 50 l0 50 -110 0 -110 0 0 28 c0 55
56 72 86 27 9 -14 25 -25 35 -25 21 0 23 8 9 30 -8 13 0 16 48 20 42 4 57 9
57 20 0 12 -19 16 -90 20 -71 4 -90 8 -90 20 0 22 -32 24 -39 2 -4 -11 -15
-27 -26 -37 -18 -16 -20 -17 -20 -2 0 14 -11 17 -64 17 -55 0 -64 3 -69 20 -7
28 -24 25 -41 -9z"/>
<path d="M700 1045 c0 -12 15 -15 75 -15 60 0 75 3 75 15 0 12 -15 15 -75 15
-60 0 -75 -3 -75 -15z"/>
<path d="M900 951 l0 -111 55 0 c52 0 55 -1 55 -25 0 -24 -2 -25 -65 -25 -58
0 -65 -2 -65 -20 0 -17 7 -20 50 -20 28 0 50 -4 50 -9 0 -11 -100 -111 -111
-111 -5 0 -9 29 -9 65 l0 65 -80 0 -80 0 0 -95 c0 -78 3 -95 15 -95 8 0 15 7
15 15 0 12 14 15 65 15 44 0 65 4 65 12 0 9 3 9 12 0 20 -20 30 -15 85 45 l53
57 0 -72 c0 -65 2 -72 20 -72 18 0 20 7 20 77 l0 76 29 -39 c48 -65 78 -89 95
-75 13 11 7 21 -39 66 -30 29 -55 58 -55 64 0 5 21 11 47 13 36 2 49 7 51 21
3 15 -5 17 -62 17 -64 0 -66 1 -66 25 0 24 3 25 55 25 l56 0 -3 108 -3 107
-127 3 -128 3 0 -110z m110 39 c0 -28 -3 -30 -35 -30 -32 0 -35 2 -35 30 0 28
3 30 35 30 32 0 35 -2 35 -30z m108 3 c-2 -23 -8 -29 -35 -31 -31 -3 -33 -1
-33 27 0 29 3 31 36 31 33 0 35 -2 32 -27z m-108 -93 c0 -28 -3 -30 -35 -30
-32 0 -35 2 -35 30 0 28 3 30 35 30 32 0 35 -2 35 -30z m110 0 c0 -28 -3 -30
-35 -30 -32 0 -35 2 -35 30 0 28 3 30 35 30 32 0 35 -2 35 -30z m-300 -220 l0
-50 -45 0 -45 0 0 50 0 50 45 0 45 0 0 -50z"/>
<path d="M1270 970 l0 -90 90 0 91 0 -3 88 -3 87 -87 3 -88 2 0 -90z m148 33
c-2 -14 -15 -19 -56 -21 -47 -3 -52 -1 -52 17 0 19 6 21 56 21 47 0 55 -3 52
-17z m0 -70 c-2 -14 -15 -19 -56 -21 -47 -3 -52 -1 -52 17 0 19 6 21 56 21 47
0 55 -3 52 -17z"/>
<path d="M1480 1035 c0 -11 12 -15 51 -15 43 0 50 -3 47 -17 -2 -12 -15 -20
-38 -23 l-35 -5 0 -120 0 -120 103 -3 102 -3 0 126 0 125 -50 0 c-27 0 -50 2
-50 4 0 27 16 36 66 36 41 0 54 4 54 15 0 13 -21 15 -125 15 -104 0 -125 -2
-125 -15z m188 -112 c3 -22 0 -23 -57 -23 -61 0 -77 9 -67 36 4 11 19 14 63
12 51 -3 58 -6 61 -25z m2 -73 c0 -18 -7 -20 -65 -20 -58 0 -65 2 -65 20 0 18
7 20 65 20 58 0 65 -2 65 -20z m0 -70 c0 -18 -7 -20 -65 -20 -58 0 -65 2 -65
20 0 18 7 20 65 20 58 0 65 -2 65 -20z"/>
<path d="M2550 925 l0 -125 60 0 60 0 0 -30 0 -30 -65 0 c-58 0 -65 -2 -65
-20 0 -18 7 -20 65 -20 l65 0 0 -40 0 -40 -85 0 c-69 0 -85 -3 -85 -15 0 -13
27 -15 180 -15 153 0 180 2 180 15 0 12 -15 15 -75 15 l-75 0 0 40 0 40 65 0
c58 0 65 2 65 20 0 18 -7 20 -65 20 l-65 0 0 30 0 30 60 0 60 0 0 125 0 125
-140 0 -140 0 0 -125z m120 60 c0 -34 -1 -35 -40 -35 -39 0 -40 1 -40 35 0 34
1 35 40 35 39 0 40 -1 40 -35z m120 0 c0 -34 -1 -35 -40 -35 -39 0 -40 1 -40
35 0 34 1 35 40 35 39 0 40 -1 40 -35z m-120 -110 c0 -34 -1 -35 -40 -35 -39
0 -40 1 -40 35 0 34 1 35 40 35 39 0 40 -1 40 -35z m120 0 c0 -34 -1 -35 -40
-35 -39 0 -40 1 -40 35 0 34 1 35 40 35 39 0 40 -1 40 -35z"/>
<path d="M2350 1020 c0 -16 7 -20 35 -20 l35 0 0 -60 0 -60 -36 0 c-28 0 -35
-3 -32 -17 2 -12 14 -19 36 -21 l32 -3 0 -74 0 -73 -35 -12 c-25 -8 -35 -18
-35 -32 0 -23 14 -21 113 14 41 15 57 26 57 39 0 15 -5 17 -30 13 l-30 -6 0
66 c0 64 1 66 25 66 18 0 25 5 25 20 0 15 -7 20 -25 20 -24 0 -25 3 -25 60 l0
60 30 0 c23 0 30 4 30 20 0 18 -7 20 -85 20 -78 0 -85 -2 -85 -20z"/>
<path d="M677 984 c-4 -4 -7 -13 -7 -21 0 -10 23 -13 101 -13 90 0 100 2 97
18 -3 14 -17 17 -94 20 -49 1 -93 0 -97 -4z"/>
<path d="M700 895 c0 -12 16 -15 80 -15 64 0 80 3 80 15 0 12 -16 15 -80 15
-64 0 -80 -3 -80 -15z"/>
<path d="M1890 710 c0 -132 1 -140 19 -140 11 0 23 5 26 10 8 13 255 13 255 0
0 -5 9 -10 20 -10 18 0 20 7 20 70 l0 70 -150 0 c-125 0 -150 2 -150 15 0 12
24 15 133 17 l132 3 3 53 3 52 -155 0 -156 0 0 -140z m270 90 c0 -19 -7 -20
-115 -20 -108 0 -115 1 -115 20 0 19 7 20 115 20 108 0 115 -1 115 -20z m30
-155 l0 -25 -130 0 -130 0 0 25 0 25 130 0 130 0 0 -25z"/>
<path d="M700 820 c0 -20 5 -21 78 -18 60 2 77 6 77 18 0 12 -17 16 -77 18
-73 3 -78 2 -78 -18z"/>
<path d="M1240 826 c0 -11 15 -16 53 -18 l52 -3 3 -67 c4 -91 -26 -93 -38 -3
-3 27 -10 40 -20 40 -11 0 -17 -17 -22 -62 -4 -34 -14 -75 -22 -91 -13 -26
-13 -32 -1 -42 11 -9 17 -6 29 19 9 16 16 37 16 46 0 21 8 19 45 -14 44 -39
108 -51 264 -51 99 0 130 3 134 14 4 11 -24 14 -146 19 -84 3 -165 10 -180 16
-25 10 -28 15 -25 48 3 38 3 38 51 41 63 4 58 26 -7 30 -45 3 -47 5 -44 30 3
25 7 27 56 30 37 2 52 7 52 18 0 11 -23 14 -125 14 -102 0 -125 -3 -125 -14z"/>
<path d="M1538 711 c-1 -5 -20 -20 -40 -34 -32 -21 -35 -27 -23 -37 12 -10 19
-10 33 1 42 32 71 63 66 71 -7 11 -31 10 -36 -1z"/>
<path d="M1636 711 c-3 -5 14 -25 38 -45 36 -29 46 -33 55 -22 9 11 3 20 -31
45 -45 33 -54 36 -62 22z"/>
<path d="M2378 219 c3 -52 0 -74 -10 -80 -9 -6 -3 -9 17 -9 l30 0 -3 80 c-3
67 -6 80 -20 80 -15 0 -17 -10 -14 -71z"/>
<path d="M2454 279 c-10 -17 13 -36 27 -22 12 12 4 33 -11 33 -5 0 -12 -5 -16
-11z"/>
<path d="M2854 276 c-8 -22 3 -33 18 -18 9 9 9 15 0 24 -9 9 -13 7 -18 -6z"/>
<path d="M1984 265 c-4 -8 -2 -21 3 -28 6 -6 13 -20 17 -31 5 -15 2 -18 -19
-14 -14 3 -25 1 -25 -3 0 -5 14 -9 30 -9 28 0 36 -11 31 -42 0 -5 14 -8 32 -8
17 0 27 4 20 8 -6 4 -23 37 -38 75 -27 67 -40 80 -51 52z"/>
<path d="M2758 249 c-2 -6 -1 -34 2 -62 5 -49 6 -52 35 -54 17 -1 22 1 13 3
-14 4 -18 16 -18 50 0 25 5 44 11 44 6 0 4 7 -5 15 -17 18 -33 19 -38 4z"/>
<path d="M2095 158 c0 -73 1 -78 21 -78 17 0 20 5 16 25 -4 22 -1 25 26 25 34
0 52 22 52 63 0 34 -17 44 -70 44 l-45 0 0 -79z m85 23 c0 -26 -17 -44 -34
-38 -19 8 -22 57 -4 75 10 10 15 9 25 -5 7 -9 13 -24 13 -32z"/>
<path d="M2235 160 c0 -75 1 -80 21 -80 17 0 20 5 16 25 -4 21 -1 25 20 25 30
0 58 28 58 58 0 25 -25 52 -48 52 -12 0 -13 -3 -4 -12 7 -7 12 -29 12 -50 0
-32 -3 -38 -21 -38 -19 0 -21 5 -17 45 3 42 -4 55 -30 55 -4 0 -7 -36 -7 -80z"/>
<path d="M2445 185 c0 -54 1 -55 28 -55 20 0 26 4 20 13 -4 6 -8 30 -8 52 0
32 -4 41 -20 43 -18 2 -20 -3 -20 -53z"/>
<path d="M2527 222 c-21 -23 -22 -56 -1 -76 16 -17 69 -22 78 -8 3 5 -8 7 -23
4 -23 -3 -29 0 -34 20 -12 48 20 95 37 53 7 -19 26 -20 26 -1 0 29 -59 35 -83
8z"/>
<path d="M2635 229 c-10 -16 4 -24 17 -11 17 17 28 15 28 -6 0 -11 -12 -22
-31 -29 -21 -8 -30 -17 -27 -30 3 -14 14 -18 54 -19 l50 -2 -6 42 c-3 23 -10
47 -14 54 -9 15 -62 16 -71 1z m45 -69 c0 -21 -15 -27 -25 -10 -7 12 2 30 16
30 5 0 9 -9 9 -20z"/>
<path d="M2845 185 c0 -48 2 -55 20 -55 18 0 20 5 17 55 -3 43 -7 55 -20 55
-14 0 -17 -10 -17 -55z"/>
<path d="M2926 224 c-29 -28 -10 -94 26 -94 7 0 6 5 -1 14 -7 8 -11 30 -9 48
2 25 8 33 23 33 24 0 32 -42 15 -75 -13 -24 2 -27 24 -4 34 34 9 94 -39 94
-13 0 -31 -7 -39 -16z"/>
<path d="M3045 185 c0 -48 2 -55 20 -55 17 0 20 7 20 47 0 46 -8 63 -30 63 -5
0 -10 -25 -10 -55z"/>
<path d="M3110 225 c7 -8 10 -32 8 -55 -3 -35 -1 -40 17 -40 18 0 20 5 17 43
-5 46 -17 67 -39 67 -13 0 -13 -3 -3 -15z"/>
<path d="M1938 133 c7 -3 16 -2 19 1 4 3 -2 6 -13 5 -11 0 -14 -3 -6 -6z"/>
</g>
</svg>
